PathFileType	4	(X/Y/Z)	OpenSim_Sub09_CSBaseline_Magnet.trc
DataRate	CameraRate	NumFrames	NumMarkers	Units	OrigDataRate	OrigDataStartFrame	OrigNumFrames
100	100	40	8	m	100	1	5840
Frame#	Time	torso_imu_offset_imu	pelvis_imu_offset_imu	tibia_r_imu_offset_imu	femur_r_imu_offset_imu	tibia_l_imu_offset_imu	femur_l_imu_offset_imu	toes_r_imu_offset_imu	toes_l_imu_offset_imu
				X1	Y1	Z1	X2	Y2	Z2	X3	Y3	Z3	X4	Y4	Z4	X5	Y5	Z5	X6	Y6	Z6	X7	Y7	Z7	X8		Y8	Z8	

1	0	-0.92137287	-0.24383198	0.09359515	-0.72381377	0.28482328	-0.54938042	-0.54192384	-0.65749343	-0.27247666	-0.70758364	-0.47840774	0.00480370	-0.65240304	0.51096645	0.06285087	-0.72521419	0.10075590	0.17573225	-0.66603906	-0.26969319	-0.44610839	-0.72408205	-0.11272978	-0.39862595
2	0.01000000	-0.91876962	-0.23377560	0.08998083	-0.72345058	0.28927787	-0.54887159	-0.53514463	-0.65740645	-0.27353690	-0.70773051	-0.48433173	0.00233648	-0.65353558	0.51195879	0.06000400	-0.72258357	0.10905729	0.17085204	-0.66214848	-0.27698045	-0.44619605	-0.72286833	-0.11190021	-0.39459559
3	0.02000000	-0.92584489	-0.23572032	0.09211216	-0.72406318	0.28359938	-0.54871776	-0.53488071	-0.65513498	-0.28106250	-0.70960332	-0.48556033	-0.00020905	-0.65321259	0.50778057	0.06362501	-0.71944739	0.10070155	0.17877784	-0.66122374	-0.27255636	-0.44365847	-0.72105187	-0.11464181	-0.40080581
4	0.03000000	-0.92865957	-0.23571086	0.08373046	-0.72735652	0.28798713	-0.54176668	-0.53798747	-0.65709841	-0.27601096	-0.70875560	-0.48548815	0.00304475	-0.65136098	0.50801288	0.06691778	-0.72348660	0.10188424	0.17602155	-0.66330188	-0.27662789	-0.44154470	-0.72840158	-0.11055060	-0.40055898
5	0.04000000	-0.92014029	-0.23060905	0.09034594	-0.72485586	0.28635057	-0.54692604	-0.53587597	-0.65398025	-0.27456045	-0.70355907	-0.48347371	0.00671057	-0.65048807	0.51549650	0.06491615	-0.72232398	0.10511141	0.18114989	-0.66368288	-0.27657346	-0.44089405	-0.72163033	-0.11351951	-0.39622062
6	0.05000000	-0.92218347	-0.23083284	0.08633829	-0.72860877	0.28098058	-0.54626098	-0.53927973	-0.65249229	-0.27479814	-0.70902719	-0.48328642	0.00421837	-0.65527677	0.51058968	0.06235595	-0.72371784	0.10882837	0.17870506	-0.66339498	-0.27563135	-0.44299353	-0.71877665	-0.11492943	-0.39034904
7	0.06000000	-0.92540871	-0.22624274	0.08735611	-0.72443081	0.28252879	-0.54731080	-0.54018314	-0.65566465	-0.27678242	-0.70831447	-0.48132226	0.00783277	-0.65164666	0.50898682	0.06471852	-0.72485278	0.11019992	0.17899560	-0.66518113	-0.27731564	-0.44354213	-0.72407200	-0.11261473	-0.39828432
8	0.07000000	-0.92767497	-0.23037758	0.09538446	-0.71813804	0.28294779	-0.55017996	-0.54031344	-0.64949374	-0.27705173	-0.71003999	-0.48295838	0.00804945	-0.65253010	0.50917779	0.06097224	-0.72179173	0.10592796	0.18231918	-0.66571457	-0.28081833	-0.44284944	-0.72209734	-0.11218532	-0.39797975
9	0.08000000	-0.92594805	-0.22323198	0.09385653	-0.72350229	0.28341647	-0.55101234	-0.53872044	-0.65383884	-0.27964123	-0.70485403	-0.48133106	-0.00244561	-0.65515598	0.51108940	0.06168027	-0.72593350	0.10584890	0.17849017	-0.66423195	-0.27098950	-0.44541619	-0.72762835	-0.11249157	-0.39823411
10	0.09000000	-0.92765649	-0.22488882	0.09545505	-0.72677912	0.27901554	-0.54759843	-0.53593765	-0.65510108	-0.27333545	-0.70507192	-0.48131237	0.00690565	-0.65731393	0.51156923	0.06254993	-0.72366462	0.09922522	0.17759563	-0.66192797	-0.27445612	-0.44354320	-0.72760871	-0.11167842	-0.38924251
11	0.10000000	-0.92644484	-0.22665350	0.09256738	-0.72584265	0.28257178	-0.55278078	-0.53762414	-0.65905555	-0.27679098	-0.70656842	-0.47910239	0.00682610	-0.65811701	0.51146609	0.06164038	-0.73041929	0.10570621	0.17756647	-0.65949137	-0.27614084	-0.44529079	-0.72375167	-0.11687450	-0.39538099
12	0.11000000	-0.92385309	-0.22390805	0.08847387	-0.72003634	0.27928814	-0.54451026	-0.53630751	-0.65589523	-0.28501519	-0.70342760	-0.48216859	0.01032027	-0.65536558	0.51141640	0.06679972	-0.72385547	0.10797206	0.18079274	-0.66099792	-0.27720564	-0.44173052	-0.72878775	-0.10903026	-0.39867956
13	0.12000000	-0.92340808	-0.22789301	0.09660910	-0.72864573	0.28229285	-0.54714101	-0.53579210	-0.65611876	-0.26821349	-0.70973187	-0.48521861	0.00642515	-0.65952210	0.51171829	0.06112585	-0.72308657	0.10574433	0.18692267	-0.66246660	-0.27982557	-0.44393992	-0.72319526	-0.11278089	-0.39109448
14	0.13000000	-0.92516103	-0.22496514	0.09845795	-0.71937933	0.28113119	-0.54600692	-0.53687363	-0.66140629	-0.27092661	-0.70277716	-0.48416499	-0.00300947	-0.65629851	0.50943504	0.06191212	-0.72526665	0.10314385	0.17955914	-0.66802238	-0.27890683	-0.44946870	-0.72312533	-0.11569572	-0.39584111
15	0.14000000	-0.92801548	-0.22401083	0.09617944	-0.72714488	0.28258976	-0.54937749	-0.54368711	-0.65630366	-0.26858233	-0.70646572	-0.47864843	0.00582538	-0.65696896	0.51107430	0.06199599	-0.71718209	0.10577884	0.17660159	-0.66003905	-0.27406372	-0.44573144	-0.72559224	-0.10689551	-0.39983810
16	0.15000000	-0.92476278	-0.22262589	0.09366308	-0.72459655	0.28141281	-0.55252888	-0.54055621	-0.65638554	-0.27353769	-0.70853245	-0.48660458	-0.00329355	-0.65840711	0.51138995	0.06641136	-0.72903703	0.09932498	0.18401082	-0.66772520	-0.27555816	-0.44764299	-0.71781054	-0.10710157	-0.39783127
17	0.16000000	-0.92295714	-0.21964845	0.09496545	-0.72101105	0.27905717	-0.55312824	-0.54346767	-0.65936027	-0.27289050	-0.70435309	-0.48040143	0.00174108	-0.65229994	0.51332318	0.06345051	-0.72311171	0.10272484	0.18075195	-0.66772135	-0.27426915	-0.44079428	-0.72707358	-0.10960972	-0.39732895
18	0.17000000	-0.92853520	-0.22202845	0.09716856	-0.73079777	0.27855799	-0.55009479	-0.54154391	-0.65783321	-0.27448212	-0.70485711	-0.48201701	0.00717713	-0.65036392	0.51248076	0.06006550	-0.72889232	0.09917853	0.18054677	-0.65821638	-0.27523149	-0.43843626	-0.72553773	-0.11246568	-0.39763651
19	0.18000000	-0.91832727	-0.21780540	0.10171052	-0.72252945	0.28070537	-0.55478521	-0.53550428	-0.65539455	-0.27115319	-0.70991089	-0.48344935	0.00249378	-0.65528537	0.50707964	0.06167210	-0.72751537	0.10247482	0.17536313	-0.65849025	-0.27776652	-0.44085771	-0.72436669	-0.10834437	-0.39689103
20	0.19000000	-0.92626831	-0.22164568	0.10020259	-0.72119735	0.27978797	-0.54884606	-0.54312736	-0.65657423	-0.27108380	-0.70492792	-0.48307640	0.00357594	-0.65186327	0.51256244	0.06622903	-0.72583421	0.09950912	0.18375050	-0.66281610	-0.27635097	-0.44136315	-0.72209580	-0.11133858	-0.40181512
21	0.20000000	-0.92354194	-0.21645179	0.10348661	-0.72708469	0.27459754	-0.55134440	-0.54076056	-0.65948141	-0.27894416	-0.70283922	-0.48316904	0.00439587	-0.65257834	0.51238012	0.06509578	-0.72504085	0.10203688	0.17707484	-0.66572503	-0.27441597	-0.43964417	-0.72737691	-0.11267740	-0.39599159
22	0.21000000	-0.92100622	-0.22003519	0.10328305	-0.72096481	0.28011091	-0.55299476	-0.54014631	-0.65615952	-0.27395696	-0.70769420	-0.48317144	0.00259813	-0.65403484	0.50933266	0.06394128	-0.71980853	0.10564056	0.17761697	-0.66400804	-0.27175984	-0.43864209	-0.72974135	-0.11174667	-0.39719999
23	0.22000000	-0.92368372	-0.22631005	0.09819565	-0.72584402	0.27908617	-0.55262766	-0.53638279	-0.65344940	-0.28873729	-0.70469264	-0.48306921	-0.00057650	-0.64881006	0.51083958	0.06904823	-0.72383976	0.10218409	0.17181527	-0.66341293	-0.27480279	-0.44318188	-0.72266490	-0.11641566	-0.39349451
24	0.23000000	-0.92143701	-0.22079656	0.10096438	-0.72360960	0.28221610	-0.55289663	-0.53785106	-0.65115093	-0.28150053	-0.70166723	-0.48347573	0.00220669	-0.65422011	0.51355607	0.06137857	-0.71973104	0.09728886	0.17769341	-0.66380183	-0.27837383	-0.43946304	-0.72516624	-0.11304757	-0.39476466
25	0.24000000	-0.92591625	-0.21964779	0.10433957	-0.72380150	0.28162455	-0.55094004	-0.53489369	-0.65210701	-0.28230130	-0.70308636	-0.48082702	-0.00429715	-0.65580608	0.51320688	0.06185959	-0.72537289	0.09626302	0.18445404	-0.66182382	-0.27313132	-0.44245985	-0.72931905	-0.11380113	-0.39160832
26	0.25000000	-0.92032655	-0.21789968	0.10226360	-0.72872104	0.27744289	-0.54926067	-0.53311878	-0.65727623	-0.28404274	-0.70740164	-0.48495211	-0.00123520	-0.65573381	0.51788056	0.05979539	-0.72177601	0.09889909	0.18281212	-0.66308167	-0.26927216	-0.44339935	-0.72283502	-0.11505139	-0.39002356
27	0.26000000	-0.92487533	-0.21879825	0.10376300	-0.72599893	0.27436082	-0.55967002	-0.53747812	-0.65180900	-0.28263866	-0.70621603	-0.48175481	-0.00061498	-0.65416459	0.51280492	0.06561192	-0.72953768	0.09653407	0.18224206	-0.66590443	-0.27493570	-0.44506155	-0.72489050	-0.11073750	-0.39433285
28	0.27000000	-0.92430783	-0.22379125	0.10457120	-0.72026831	0.27854825	-0.56323879	-0.53799763	-0.65267042	-0.27678386	-0.70589690	-0.48234943	0.00351850	-0.64943732	0.51094569	0.06695502	-0.72357094	0.10214533	0.18235028	-0.66040814	-0.27587346	-0.44389861	-0.73137677	-0.11125506	-0.39527596
29	0.28000000	-0.92363097	-0.22213292	0.10447085	-0.72591334	0.27399233	-0.55406399	-0.54013708	-0.65114756	-0.28536956	-0.70395261	-0.48506286	0.00129006	-0.65027391	0.51343993	0.06682883	-0.72333781	0.10217226	0.18042175	-0.66039277	-0.27779555	-0.44268535	-0.72319333	-0.11661177	-0.39464813
30	0.29000000	-0.92361512	-0.22405447	0.10562031	-0.72183437	0.26990736	-0.55154387	-0.53828350	-0.65286431	-0.27855588	-0.70371606	-0.48369571	-0.00506762	-0.65362135	0.51358290	0.06450676	-0.72400356	0.09705086	0.17817500	-0.66525340	-0.27460857	-0.44560623	-0.72400078	-0.11161182	-0.39750129
31	0.30000000	-0.92395130	-0.22039936	0.11268839	-0.71768080	0.27400645	-0.55622860	-0.54009591	-0.65100024	-0.28182692	-0.70187880	-0.48126572	0.00112245	-0.64914968	0.51536774	0.06660576	-0.72543301	0.09833411	0.17704523	-0.66559170	-0.27496631	-0.43989524	-0.72065664	-0.10765572	-0.39470344
32	0.31000000	-0.92200899	-0.22130476	0.10776338	-0.72159464	0.27454505	-0.55799706	-0.53817988	-0.65325971	-0.28842589	-0.70318150	-0.48074271	-0.00169079	-0.65430576	0.51641643	0.06082075	-0.72809153	0.09916616	0.18356571	-0.66592243	-0.27962833	-0.44357347	-0.72291624	-0.11127199	-0.40144439
33	0.32000000	-0.92154049	-0.22221706	0.10828366	-0.72406771	0.27672612	-0.55214292	-0.54167639	-0.64744113	-0.28465774	-0.70580958	-0.48264786	-0.00149976	-0.65646097	0.51191322	0.06271246	-0.72694076	0.09824568	0.18333854	-0.66175774	-0.27848230	-0.44945750	-0.72866641	-0.11473970	-0.39439678
34	0.33000000	-0.92163264	-0.22022855	0.10747908	-0.72700961	0.27276377	-0.56102644	-0.54239981	-0.65027226	-0.28288599	-0.70397360	-0.48484609	0.00230334	-0.64994433	0.51451780	0.07149368	-0.72219074	0.10336287	0.17975734	-0.66350508	-0.27614502	-0.44612709	-0.72520365	-0.11075212	-0.39561321
35	0.34000000	-0.92171494	-0.21797399	0.10236387	-0.72067070	0.27616560	-0.55383637	-0.54264590	-0.64872306	-0.27338195	-0.70482915	-0.48526429	-0.00367269	-0.64855241	0.51890222	0.06097650	-0.72392937	0.09594151	0.18377581	-0.65983065	-0.27555710	-0.44494623	-0.72416290	-0.11036533	-0.40233350
36	0.35000000	-0.92129360	-0.21886114	0.10512807	-0.72564691	0.27307664	-0.55780359	-0.54023295	-0.65593633	-0.27860112	-0.70997280	-0.48372320	-0.00528156	-0.65045471	0.50999050	0.06732148	-0.71980881	0.09582977	0.18467581	-0.66289514	-0.27791613	-0.44599321	-0.72449483	-0.10621401	-0.39403339
37	0.36000000	-0.92502147	-0.22387920	0.11071680	-0.72322434	0.27445709	-0.55820609	-0.54193867	-0.65576391	-0.27458484	-0.70483121	-0.48096996	-0.00456929	-0.65169978	0.51513176	0.06731939	-0.72457595	0.09714432	0.18490387	-0.66199444	-0.27444261	-0.43982821	-0.72497108	-0.10879375	-0.39619718
38	0.37000000	-0.92635985	-0.22059533	0.10931894	-0.72394850	0.27108277	-0.55458524	-0.54057936	-0.65690970	-0.28778294	-0.70521281	-0.48302314	-0.00903721	-0.64667762	0.51015889	0.06863820	-0.72825864	0.09452997	0.18087900	-0.66314773	-0.27550959	-0.44247228	-0.71985001	-0.11405101	-0.39811131
39	0.38000000	-0.92411529	-0.22067857	0.10811274	-0.72275207	0.27039056	-0.55688284	-0.53970401	-0.65551993	-0.28755761	-0.70590277	-0.48101049	-0.00779367	-0.65077181	0.51444983	0.06728788	-0.72821908	0.09649855	0.18012350	-0.66354636	-0.27449645	-0.44341389	-0.72539549	-0.11448997	-0.39371129
40	0.39000000	-0.92376380	-0.22777550	0.11465590	-0.72077934	0.27002235	-0.55434438	-0.54198103	-0.65503927	-0.28243471	-0.70602647	-0.48452780	-0.00731572	-0.64573031	0.51607578	0.06612698	-0.72847349	0.09470265	0.17971815	-0.66409522	-0.27337291	-0.44499291	-0.72508050	-0.11496594	-0.39075550
